<svg xmlns="http://www.w3.org/2000/svg" viewBox="0 0 300 180" width="300" height="180" role="img" aria-label="A table of car makes with shaded squares: Toyota 8, Ford 7, Holden 6, Mazda 5, Honda 4. Thirty squares in total.">
  <rect x="0" y="0" width="300" height="180" fill="#ffffff"/>
  <g font-family="Georgia, 'Times New Roman', serif" font-size="14" fill="#222222">
    <text x="8" y="28">Toyota</text>
    <text x="8" y="58">Ford</text>
    <text x="8" y="88">Holden</text>
    <text x="8" y="118">Mazda</text>
    <text x="8" y="148">Honda</text>
  </g>
  <g fill="#7aa6c7" stroke="#222222" stroke-width="1.5">
    <rect x="70" y="12" width="20" height="20"/><rect x="90" y="12" width="20" height="20"/><rect x="110" y="12" width="20" height="20"/><rect x="130" y="12" width="20" height="20"/><rect x="150" y="12" width="20" height="20"/><rect x="170" y="12" width="20" height="20"/><rect x="190" y="12" width="20" height="20"/><rect x="210" y="12" width="20" height="20"/>
    <rect x="70" y="42" width="20" height="20"/><rect x="90" y="42" width="20" height="20"/><rect x="110" y="42" width="20" height="20"/><rect x="130" y="42" width="20" height="20"/><rect x="150" y="42" width="20" height="20"/><rect x="170" y="42" width="20" height="20"/><rect x="190" y="42" width="20" height="20"/>
    <rect x="70" y="72" width="20" height="20"/><rect x="90" y="72" width="20" height="20"/><rect x="110" y="72" width="20" height="20"/><rect x="130" y="72" width="20" height="20"/><rect x="150" y="72" width="20" height="20"/><rect x="170" y="72" width="20" height="20"/>
    <rect x="70" y="102" width="20" height="20"/><rect x="90" y="102" width="20" height="20"/><rect x="110" y="102" width="20" height="20"/><rect x="130" y="102" width="20" height="20"/><rect x="150" y="102" width="20" height="20"/>
    <rect x="70" y="132" width="20" height="20"/><rect x="90" y="132" width="20" height="20"/><rect x="110" y="132" width="20" height="20"/><rect x="130" y="132" width="20" height="20"/>
  </g>
</svg>
