<svg viewBox="0 0 320 140" xmlns="http://www.w3.org/2000/svg" font-family="sans-serif" font-size="11">
  <g stroke="currentColor" stroke-width="0.75" opacity="0.5">
    <line x1="10" y1="10" x2="10" y2="90"/><line x1="45" y1="10" x2="45" y2="90"/>
    <line x1="80" y1="10" x2="80" y2="90"/><line x1="115" y1="10" x2="115" y2="90"/>
    <line x1="150" y1="10" x2="150" y2="90"/><line x1="185" y1="10" x2="185" y2="90"/>
    <line x1="220" y1="10" x2="220" y2="90"/><line x1="255" y1="10" x2="255" y2="90"/>
    <line x1="290" y1="10" x2="290" y2="90"/>
    <line x1="10" y1="10" x2="290" y2="10"/><line x1="10" y1="30" x2="290" y2="30"/>
    <line x1="10" y1="50" x2="290" y2="50"/><line x1="10" y1="70" x2="290" y2="70"/>
    <line x1="10" y1="90" x2="290" y2="90"/>
  </g>
  <rect x="45" y="10" width="245" height="80" fill="currentColor" opacity="0.35"/>
  <text x="167" y="55" text-anchor="middle" fill="currentColor" font-weight="bold">welcome mat</text>
  <text x="160" y="120" text-anchor="middle" fill="currentColor" font-size="10" opacity="0.7">the mat sits on a grid of identical square tiles</text>
</svg>
