<svg viewBox="0 0 320 140" xmlns="http://www.w3.org/2000/svg" font-family="sans-serif" font-size="13">
  <g stroke="currentColor" stroke-width="0.75" fill="none" opacity="0.5">
    <line x1="10" y1="10" x2="10" y2="90"/>
    <line x1="47.5" y1="10" x2="47.5" y2="90"/>
    <line x1="85" y1="10" x2="85" y2="90"/>
    <line x1="122.5" y1="10" x2="122.5" y2="90"/>
    <line x1="160" y1="10" x2="160" y2="90"/>
    <line x1="197.5" y1="10" x2="197.5" y2="90"/>
    <line x1="235" y1="10" x2="235" y2="90"/>
    <line x1="272.5" y1="10" x2="272.5" y2="90"/>
    <line x1="310" y1="10" x2="310" y2="90"/>
    <line x1="10" y1="10" x2="310" y2="10"/>
    <line x1="10" y1="50" x2="310" y2="50"/>
    <line x1="10" y1="90" x2="310" y2="90"/>
  </g>
  <circle cx="10" cy="50" r="5" fill="currentColor"/>
  <text x="10" y="35" text-anchor="middle" fill="currentColor">Emma's</text>
  <circle cx="310" cy="50" r="5" fill="currentColor"/>
  <text x="300" y="35" text-anchor="middle" fill="currentColor">Jane's</text>
  <line x1="10" y1="50" x2="310" y2="50" stroke="currentColor" stroke-width="1.5" stroke-dasharray="4,3"/>
  <text x="160" y="65" text-anchor="middle" fill="currentColor" font-size="11">200 metres</text>
  <line x1="10" y1="110" x2="47.5" y2="110" stroke="currentColor" stroke-width="1.5"/>
  <text x="28" y="128" text-anchor="middle" fill="currentColor" font-size="12">1 unit</text>
</svg>
